<svg xmlns="http://www.w3.org/2000/svg" viewBox="0 0 160 200" fill="none" stroke="#c9a96e" stroke-width="1.5" stroke-linecap="round" stroke-linejoin="round">

  <!-- waistband -->
  <path d="M40,40 L120,40 L120,52 L40,52 Z"/>
  <!-- belt loops -->
  <rect x="54" y="37" width="5" height="8" rx="1"/>
  <rect x="101" y="37" width="5" height="8" rx="1"/>
  <rect x="78" y="37" width="5" height="8" rx="1"/>
  <!-- legs: wider, below-knee length -->
  <path d="M40,52 L36,136 L74,136 L80,82 L86,136 L124,136 L120,52"/>
  <line x1="80" y1="52" x2="80" y2="82"/>
  <!-- left cargo pocket with flap -->
  <rect x="40" y="78" width="24" height="30" rx="2"/>
  <line x1="40" y1="84" x2="64" y2="84"/>
  <circle cx="52" cy="81" r="1.5"/>
  <!-- right cargo pocket with flap -->
  <rect x="96" y="78" width="24" height="30" rx="2"/>
  <line x1="96" y1="84" x2="120" y2="84"/>
  <circle cx="108" cy="81" r="1.5"/>
</svg>