<svg xmlns="http://www.w3.org/2000/svg" viewBox="0 0 160 200" fill="none" stroke="#c9a96e" stroke-width="1.5" stroke-linecap="round" stroke-linejoin="round">

  <!-- wider lapel collar -->
  <path d="M62,36 L56,58 L72,58 L80,46 L88,58 L104,58 L98,36"/>
  <path d="M68,34 L80,24 L92,34"/>
  <!-- short/cropped body + sleeves -->
  <path d="M56,58 L32,72 L30,136 L52,136 L52,148 L108,148 L108,136 L130,136 L128,72 L104,58"/>
  <!-- center placket -->
  <line x1="80" y1="46" x2="80" y2="148"/>
  <!-- buttons -->
  <circle cx="80" cy="74" r="2.5"/>
  <circle cx="80" cy="96" r="2.5"/>
  <circle cx="80" cy="118" r="2.5"/>
  <!-- breast pocket -->
  <rect x="56" y="76" width="18" height="14" rx="1"/>
  <line x1="56" y1="76" x2="74" y2="76"/>
  <!-- sleeve cuffs -->
  <rect x="30" y="128" width="22" height="10" rx="2"/>
  <rect x="108" y="128" width="22" height="10" rx="2"/>
</svg>