<svg xmlns="http://www.w3.org/2000/svg" viewBox="0 0 160 200" fill="none" stroke="#c9a96e" stroke-width="1.5" stroke-linecap="round" stroke-linejoin="round">
  <!-- fitted linen camp shirt: long sleeve, camp collar, tapered waist, barrel cuffs, no pocket -->
  <path d="M70,44 L80,60 L90,44"/>
  <path d="M70,44 L52,52 L44,130 L58,130 Q56,152 60,176 L100,176 Q104,152 102,130 L116,130 L108,52 L90,44"/>
  <line x1="80" y1="60" x2="80" y2="176"/>
  <circle cx="80" cy="78" r="2"/>
  <circle cx="80" cy="96" r="2"/>
  <circle cx="80" cy="114" r="2"/>
  <circle cx="80" cy="132" r="2"/>
  <circle cx="80" cy="150" r="2"/>
  <circle cx="80" cy="168" r="2"/>
  <rect x="44" y="122" width="16" height="10" rx="2"/>
  <rect x="100" y="122" width="16" height="10" rx="2"/>
</svg>
