<svg xmlns="http://www.w3.org/2000/svg" viewBox="0 0 160 200" fill="none" stroke="#c9a96e" stroke-width="1.5" stroke-linecap="round" stroke-linejoin="round">

  <!-- body face: front view -->
  <rect x="30" y="80" width="100" height="90" rx="6"/>
  <!-- arch end panels: left and right sides -->
  <path d="M30,80 L25,120 Q25,145 30,160 L30,170"/>
  <path d="M130,80 L135,120 Q135,145 130,160 L130,170"/>
  <!-- zipper line across top -->
  <line x1="30" y1="80" x2="130" y2="80"/>
  <!-- zipper teeth marks -->
  <line x1="35" y1="80" x2="35" y2="76"/><line x1="45" y1="80" x2="45" y2="76"/><line x1="55" y1="80" x2="55" y2="76"/><line x1="65" y1="80" x2="65" y2="76"/><line x1="75" y1="80" x2="75" y2="76"/><line x1="85" y1="80" x2="85" y2="76"/><line x1="95" y1="80" x2="95" y2="76"/><line x1="105" y1="80" x2="105" y2="76"/><line x1="115" y1="80" x2="115" y2="76"/><line x1="125" y1="80" x2="125" y2="76"/>
  <!-- zipper pull -->
  <rect x="76" y="70" width="8" height="6" rx="1"/>
  <!-- trim straps running widthwise -->
  <line x1="50" y1="80" x2="50" y2="170" stroke-width="1.5"/>
  <line x1="110" y1="80" x2="110" y2="170" stroke-width="1.5"/>
  <!-- handles above trim straps -->
  <path d="M48,80 Q48,60 50,45 Q52,60 52,80"/>
  <path d="M108,80 Q108,60 110,45 Q112,60 112,80"/>
  <!-- handle anchor patches -->
  <rect x="45" y="75" width="10" height="8" rx="1"/>
  <rect x="105" y="75" width="10" height="8" rx="1"/>
</svg>