<svg xmlns="http://www.w3.org/2000/svg" viewBox="0 0 160 200" fill="none" stroke="#c9a96e" stroke-width="1.5" stroke-linecap="round" stroke-linejoin="round">

  <!-- body: largest 50, widest -->
  <rect x="22" y="85" width="116" height="82" rx="6"/>
  <!-- arch ends -->
  <path d="M22,85 L14,130 Q14,153 22,168"/>
  <path d="M138,85 L146,130 Q146,153 138,168"/>
  <!-- zipper across top -->
  <line x1="22" y1="85" x2="138" y2="85"/>
  <line x1="27" y1="85" x2="27" y2="82"/><line x1="37" y1="85" x2="37" y2="82"/><line x1="47" y1="85" x2="47" y2="82"/><line x1="57" y1="85" x2="57" y2="82"/><line x1="67" y1="85" x2="67" y2="82"/><line x1="77" y1="85" x2="77" y2="82"/><line x1="87" y1="85" x2="87" y2="82"/><line x1="97" y1="85" x2="97" y2="82"/><line x1="107" y1="85" x2="107" y2="82"/><line x1="117" y1="85" x2="117" y2="82"/><line x1="127" y1="85" x2="127" y2="82"/>
  <!-- zipper pull -->
  <rect x="76" y="76" width="8" height="6" rx="1"/>
  <!-- trim straps -->
  <line x1="43" y1="85" x2="43" y2="168" stroke-width="1.5"/>
  <line x1="117" y1="85" x2="117" y2="168" stroke-width="1.5"/>
  <!-- handles -->
  <path d="M41,85 Q41,65 43,50 Q45,65 45,85"/>
  <path d="M115,85 Q115,65 117,50 Q119,65 119,85"/>
  <!-- anchor patches -->
  <rect x="40" y="80" width="8" height="7" rx="1"/>
  <rect x="112" y="80" width="8" height="7" rx="1"/>
  <!-- D-ring tabs at ends (50 has shoulder strap) -->
  <rect x="22" y="95" width="4" height="10" rx="1"/>
  <rect x="134" y="95" width="4" height="10" rx="1"/>
  <!-- small circles for rings -->
  <circle cx="24" cy="110" r="2" opacity="0.5"/>
  <circle cx="136" cy="110" r="2" opacity="0.5"/>
</svg>