<svg xmlns="http://www.w3.org/2000/svg" viewBox="0 0 160 200" fill="none" stroke="#c9a96e" stroke-width="1.5" stroke-linecap="round" stroke-linejoin="round">

  <!-- body: medium size 45 -->
  <rect x="28" y="82" width="104" height="86" rx="6"/>
  <!-- arch ends -->
  <path d="M28,82 L20,128 Q20,152 28,168"/>
  <path d="M132,82 L140,128 Q140,152 132,168"/>
  <!-- zipper across top -->
  <line x1="28" y1="82" x2="132" y2="82"/>
  <line x1="33" y1="82" x2="33" y2="79"/><line x1="43" y1="82" x2="43" y2="79"/><line x1="53" y1="82" x2="53" y2="79"/><line x1="63" y1="82" x2="63" y2="79"/><line x1="73" y1="82" x2="73" y2="79"/><line x1="83" y1="82" x2="83" y2="79"/><line x1="93" y1="82" x2="93" y2="79"/><line x1="103" y1="82" x2="103" y2="79"/><line x1="113" y1="82" x2="113" y2="79"/><line x1="123" y1="82" x2="123" y2="79"/>
  <!-- zipper pull -->
  <rect x="76" y="73" width="8" height="6" rx="1"/>
  <!-- trim straps -->
  <line x1="48" y1="82" x2="48" y2="168" stroke-width="1.5"/>
  <line x1="112" y1="82" x2="112" y2="168" stroke-width="1.5"/>
  <!-- handles -->
  <path d="M46,82 Q46,62 48,48 Q50,62 50,82"/>
  <path d="M110,82 Q110,62 112,48 Q114,62 114,82"/>
  <!-- anchor patches -->
  <rect x="44" y="77" width="8" height="7" rx="1"/>
  <rect x="108" y="77" width="8" height="7" rx="1"/>
</svg>