<svg xmlns="http://www.w3.org/2000/svg" viewBox="0 0 160 200" fill="none" stroke="#c9a96e" stroke-width="1.5" stroke-linecap="round" stroke-linejoin="round">

  <!-- bag body (wider for 50) -->
  <rect x="14" y="112" width="132" height="62" rx="8"/>
  <line x1="24" y1="112" x2="136" y2="112"/>
  <rect x="76" y="107" width="8" height="6" rx="1"/>
  <line x1="80" y1="102" x2="80" y2="107"/>
  <!-- handles -->
  <path d="M44,112 L44,88 Q51,76 58,88 L58,112"/>
  <path d="M102,112 L102,88 Q110,76 116,88 L116,112"/>
  <!-- anchor patches -->
  <rect x="38" y="106" width="26" height="8" rx="1.5"/>
  <rect x="96" y="106" width="26" height="8" rx="1.5"/>
  <!-- shoulder strap D-ring tabs at ends -->
  <rect x="14" y="118" width="5" height="12" rx="1"/>
  <rect x="141" y="118" width="5" height="12" rx="1"/>
  <!-- gusset stitch lines -->
  <line x1="22" y1="116" x2="22" y2="170" stroke-dasharray="3 2" stroke-width="1"/>
  <line x1="138" y1="116" x2="138" y2="170" stroke-dasharray="3 2" stroke-width="1"/>
</svg>