<svg xmlns="http://www.w3.org/2000/svg" viewBox="0 0 160 200" fill="none" stroke="#c9a96e" stroke-width="1.5" stroke-linecap="round" stroke-linejoin="round">
  <!-- lightweight denim: relaxed fit, hip length (longer than standard trucker) -->
  <path d="M66,36 L74,50 L80,42 L86,50 L94,36"/>
  <path d="M72,36 L80,28 L88,36"/>
  <path d="M66,36 L38,56 L34,134 L52,134 L52,166 L108,166 L108,134 L128,134 L122,56 L94,36"/>
  <line x1="80" y1="42" x2="80" y2="166"/>
  <circle cx="80" cy="62" r="2"/>
  <circle cx="80" cy="82" r="2"/>
  <circle cx="80" cy="102" r="2"/>
  <circle cx="80" cy="122" r="2"/>
  <circle cx="80" cy="142" r="2"/>
  <path d="M56,62 Q80,56 104,62"/>
</svg>
