<svg xmlns="http://www.w3.org/2000/svg" viewBox="0 0 160 200" fill="none" stroke="#c9a96e" stroke-width="1.5" stroke-linecap="round" stroke-linejoin="round">
  <!-- linen shirt dress: band collar (no point), relaxed, sash belt -->
  <path d="M72,32 Q80,28 88,32"/>
  <path d="M72,32 L50,44 L46,96 L58,96 L58,104 L102,104 L102,96 L114,96 L110,44 L88,32"/>
  <line x1="80" y1="36" x2="80" y2="104"/>
  <path d="M58,98 Q80,102 102,98"/>
  <path d="M58,104 L44,192 L116,192 L102,104"/>
  <circle cx="80" cy="52" r="1.5"/>
  <circle cx="80" cy="68" r="1.5"/>
  <circle cx="80" cy="84" r="1.5"/>
  <!-- sash belt at waist -->
  <path d="M58,102 Q80,106 102,102"/>
  <path d="M52,100 L48,108 L52,104"/>
</svg>
