<svg xmlns="http://www.w3.org/2000/svg" viewBox="0 0 160 200" fill="none" stroke="#c9a96e" stroke-width="1.5" stroke-linecap="round" stroke-linejoin="round">
  <!-- linen shirt: relaxed button-up, point collar, no pocket, longer body -->
  <path d="M66,40 L74,56 L80,48 L86,56 L94,40"/>
  <path d="M72,40 L80,32 L88,40"/>
  <!-- wider/relaxed body + sleeves -->
  <path d="M66,40 L38,58 L34,132 L52,132 L52,176 L108,176 L108,132 L126,132 L122,58 L94,40"/>
  <line x1="80" y1="48" x2="80" y2="176"/>
  <circle cx="80" cy="68" r="2"/>
  <circle cx="80" cy="88" r="2"/>
  <circle cx="80" cy="108" r="2"/>
  <circle cx="80" cy="128" r="2"/>
  <circle cx="80" cy="148" r="2"/>
  <circle cx="80" cy="166" r="2"/>
  <path d="M56,62 Q80,56 104,62"/>
  <rect x="34" y="124" width="18" height="10" rx="2"/>
  <rect x="108" y="124" width="18" height="10" rx="2"/>
</svg>
