<svg xmlns="http://www.w3.org/2000/svg" viewBox="0 0 160 200" fill="none" stroke="#c9a96e" stroke-width="1.5" stroke-linecap="round" stroke-linejoin="round">

  <path d="M66,38 L72,50 L80,44 L88,50 L94,38"/>
  <path d="M68,38 Q80,30 92,38"/>
  <path d="M66,38 L36,58 L32,132 L50,132 L50,162 L110,162 L110,132 L128,132 L124,58 L94,38"/>
  <path d="M62,162 L72,46"/>
  <path d="M72,46 L62,60 L66,74"/>
  <line x1="40" y1="80" x2="35" y2="128"/>
  <path d="M55,66 Q80,60 105,66"/>
  <line x1="52" y1="146" x2="70" y2="146"/>
  <line x1="90" y1="146" x2="108" y2="146"/>
</svg>