<svg xmlns="http://www.w3.org/2000/svg" viewBox="0 0 160 200" fill="none" stroke="#c9a96e" stroke-width="1.5" stroke-linecap="round" stroke-linejoin="round">
  <!-- oversized hoodie: wider body, bigger hood, longer -->
  <path d="M56,48 Q56,22 80,20 Q104,22 104,48"/>
  <path d="M54,52 L22,72 L22,136 L46,136 L46,176 L114,176 L114,136 L138,136 L138,72 L106,52"/>
  <path d="M66,52 L72,62"/>
  <path d="M94,52 L88,62"/>
  <rect x="22" y="130" width="24" height="8" rx="3"/>
  <rect x="124" y="130" width="24" height="8" rx="3"/>
  <rect x="46" y="168" width="68" height="8" rx="3"/>
  <path d="M58,120 L58,148 Q80,152 102,148 L102,120"/>
</svg>
