<svg xmlns="http://www.w3.org/2000/svg" viewBox="0 0 160 200" fill="none" stroke="#c9a96e" stroke-width="1.5" stroke-linecap="round" stroke-linejoin="round">

  <!-- outer ring (larger, puffier) -->
  <ellipse cx="80" cy="105" rx="68" ry="48"/>
  <!-- inner ring -->
  <ellipse cx="80" cy="105" rx="36" ry="22"/>

  <!-- ruffle/gather marks — more numerous for puffy look -->
  <path d="M14,86 Q8,105 14,124" stroke-width="1" stroke-dasharray="3 3"/>
  <path d="M22,66 Q14,82 18,102" stroke-width="1" stroke-dasharray="3 3"/>
  <path d="M42,56 Q34,72 38,90" stroke-width="1" stroke-dasharray="3 3"/>
  <path d="M62,58 Q58,72 60,88" stroke-width="1" stroke-dasharray="3 3"/>
  <path d="M80,57 Q80,70 80,86" stroke-width="1" stroke-dasharray="3 3"/>
  <path d="M98,58 Q102,72 100,88" stroke-width="1" stroke-dasharray="3 3"/>
  <path d="M118,56 Q126,72 122,90" stroke-width="1" stroke-dasharray="3 3"/>
  <path d="M138,66 Q146,82 142,102" stroke-width="1" stroke-dasharray="3 3"/>
  <path d="M146,86 Q152,105 146,124" stroke-width="1" stroke-dasharray="3 3"/>
  <path d="M138,128 Q144,146 134,152" stroke-width="1" stroke-dasharray="3 3"/>
  <path d="M118,140 Q122,152 112,156" stroke-width="1" stroke-dasharray="3 3"/>
  <path d="M98,144 Q100,156 90,158" stroke-width="1" stroke-dasharray="3 3"/>
  <path d="M62,144 Q60,156 70,158" stroke-width="1" stroke-dasharray="3 3"/>
  <path d="M42,140 Q38,152 48,156" stroke-width="1" stroke-dasharray="3 3"/>
  <path d="M22,128 Q16,146 26,152" stroke-width="1" stroke-dasharray="3 3"/>

</svg>
