<svg xmlns="http://www.w3.org/2000/svg" viewBox="0 0 160 200" fill="none" stroke="#c9a96e" stroke-width="1.5" stroke-linecap="round" stroke-linejoin="round">

  <!-- elongated pouch body -->
  <rect x="18" y="82" width="124" height="72" rx="3"/>

  <!-- zipper at top -->
  <line x1="18" y1="82" x2="142" y2="82"/>
  <!-- zipper teeth -->
  <line x1="26" y1="78" x2="26" y2="86" stroke-width="1"/>
  <line x1="36" y1="78" x2="36" y2="86" stroke-width="1"/>
  <line x1="46" y1="78" x2="46" y2="86" stroke-width="1"/>
  <line x1="56" y1="78" x2="56" y2="86" stroke-width="1"/>
  <line x1="66" y1="78" x2="66" y2="86" stroke-width="1"/>
  <line x1="76" y1="78" x2="76" y2="86" stroke-width="1"/>
  <line x1="86" y1="78" x2="86" y2="86" stroke-width="1"/>
  <line x1="96" y1="78" x2="96" y2="86" stroke-width="1"/>
  <line x1="106" y1="78" x2="106" y2="86" stroke-width="1"/>
  <line x1="116" y1="78" x2="116" y2="86" stroke-width="1"/>
  <line x1="126" y1="78" x2="126" y2="86" stroke-width="1"/>
  <line x1="136" y1="78" x2="136" y2="86" stroke-width="1"/>

  <!-- zipper pull -->
  <rect x="72" y="70" width="10" height="12" rx="1" stroke-width="1.2"/>

  <!-- topstitch line -->
  <line x1="22" y1="88" x2="138" y2="88" stroke-dasharray="3 2" stroke-width="1"/>

</svg>
