<svg xmlns="http://www.w3.org/2000/svg" viewBox="0 0 160 200" fill="none" stroke="#c9a96e" stroke-width="1.5" stroke-linecap="round" stroke-linejoin="round">

  <path d="M66,38 L58,58 L38,76 L38,158 L62,158 L62,150 L98,150 L98,158 L122,158 L122,76 L102,58 L94,38"/>
  <path d="M66,38 Q72,28 80,26 Q88,28 94,38"/>
  <path d="M54,150 L70,54"/>
  <path d="M70,54 L52,68 L60,86 L70,72"/>
  <path d="M70,54 L80,62 L76,78"/>
  <line x1="38" y1="116" x2="122" y2="116"/>
  <line x1="40" y1="114" x2="58" y2="114"/>
  <line x1="102" y1="114" x2="120" y2="114"/>
  <line x1="42" y1="98" x2="44" y2="140"/>
  <line x1="118" y1="98" x2="116" y2="140"/>
  <circle cx="46" cy="62" r="2.5"/>
  <circle cx="114" cy="62" r="2.5"/>
</svg>