<svg xmlns="http://www.w3.org/2000/svg" viewBox="0 0 160 200" fill="none" stroke="#c9a96e" stroke-width="1.5" stroke-linecap="round" stroke-linejoin="round">

  <path d="M66,38 L72,54 L80,44 L88,54 L94,38"/>
  <path d="M68,38 Q80,28 92,38"/>
  <path d="M66,38 L36,58 L32,132 L50,132 L50,162 L110,162 L110,132 L128,132 L124,58 L94,38"/>
  <path d="M60,162 L72,44"/>
  <path d="M72,44 L56,62 L62,80 L72,70"/>
  <path d="M72,44 L80,60 L76,78"/>
  <line x1="50" y1="142" x2="110" y2="142"/>
  <rect x="32" y="56" width="12" height="6" rx="1"/>
  <rect x="116" y="56" width="12" height="6" rx="1"/>
  <circle cx="44" cy="59" r="1.5"/>
  <circle cx="116" cy="59" r="1.5"/>
  <line x1="40" y1="80" x2="35" y2="128"/>
  <line x1="52" y1="146" x2="70" y2="146"/>
  <line x1="90" y1="146" x2="108" y2="146"/>
</svg>