<svg xmlns="http://www.w3.org/2000/svg" viewBox="0 0 160 200" fill="none" stroke="#c9a96e" stroke-width="1.5" stroke-linecap="round" stroke-linejoin="round">

  <!-- higher rise waistband -->
  <path d="M40,32 L120,32 L120,46 L40,46 Z"/>
  <!-- belt loops -->
  <rect x="54" y="29" width="5" height="10" rx="1"/>
  <rect x="101" y="29" width="5" height="10" rx="1"/>
  <rect x="78" y="29" width="5" height="10" rx="1"/>
  <!-- wide full-cut legs -->
  <path d="M40,46 L34,188 L76,188 L80,88 L84,188 L126,188 L120,46"/>
  <line x1="80" y1="46" x2="80" y2="88"/>
  <!-- prominent pleat lines (2 per side, extending 1/3 down) -->
  <line x1="64" y1="46" x2="60" y2="86"/>
  <line x1="70" y1="46" x2="67" y2="86"/>
  <line x1="90" y1="46" x2="93" y2="86"/>
  <line x1="96" y1="46" x2="100" y2="86"/>
  <!-- cuff at hem -->
  <line x1="34" y1="182" x2="76" y2="182"/>
  <line x1="84" y1="182" x2="126" y2="182"/>
</svg>