<svg xmlns="http://www.w3.org/2000/svg" viewBox="0 0 160 200" fill="none" stroke="#c9a96e" stroke-width="1.5" stroke-linecap="round" stroke-linejoin="round">

  <!-- elastic waistband -->
  <path d="M46,38 L114,38 L114,50 L46,50 Z"/>
  <path d="M68,38 Q80,44 92,38"/>
  <!-- drawstring -->
  <line x1="76" y1="38" x2="72" y2="48"/>
  <line x1="84" y1="38" x2="88" y2="48"/>
  <!-- tapered legs -->
  <path d="M46,50 L48,182 L78,182 L80,92 L82,182 L112,182 L114,50"/>
  <line x1="80" y1="50" x2="80" y2="92"/>
  <!-- jogger cuffs at ankles -->
  <rect x="48" y="178" width="30" height="8" rx="3"/>
  <rect x="82" y="178" width="30" height="8" rx="3"/>
  <!-- side-seam pocket curves -->
  <path d="M50,54 Q56,72 50,80"/>
  <path d="M110,54 Q104,72 110,80"/>
  <!-- kangaroo pocket -->
  <path d="M64,58 L64,70 Q80,76 96,70 L96,58"/>
</svg>