<svg xmlns="http://www.w3.org/2000/svg" viewBox="0 0 160 200" fill="none" stroke="#c9a96e" stroke-width="1.5" stroke-linecap="round" stroke-linejoin="round">
  <!-- tiered sundress: bodice + 3 gathered tiers -->
  <path d="M70,16 L66,36"/>
  <path d="M90,16 L94,36"/>
  <path d="M62,36 Q72,48 80,50 Q88,48 98,36"/>
  <path d="M62,36 L56,44 L54,98 Q80,102 106,98 L104,44 L98,36"/>
  <!-- tier 1 -->
  <path d="M54,98 L48,132 L112,132 L106,98"/>
  <!-- tier 2 -->
  <path d="M48,132 L40,164 L120,164 L112,132"/>
  <!-- tier 3 -->
  <path d="M40,164 L32,196 L128,196 L120,164"/>
  <!-- tier seam lines -->
  <line x1="48" y1="132" x2="112" y2="132"/>
  <line x1="40" y1="164" x2="120" y2="164"/>
</svg>
