<svg xmlns="http://www.w3.org/2000/svg" viewBox="0 0 160 200" fill="none" stroke="#c9a96e" stroke-width="1.5" stroke-linecap="round" stroke-linejoin="round">
  <!-- vacation shirt: relaxed camp collar with pocket, looser body -->
  <path d="M70,44 L80,60 L90,44"/>
  <path d="M70,44 L48,52 L44,92 L56,92 L54,174 L106,174 L104,92 L116,92 L112,52 L90,44"/>
  <line x1="80" y1="60" x2="80" y2="174"/>
  <circle cx="80" cy="80" r="2"/>
  <circle cx="80" cy="98" r="2"/>
  <circle cx="80" cy="116" r="2"/>
  <rect x="56" y="80" width="18" height="16" rx="1"/>
  <!-- all-over print hint (small dots) -->
  <circle cx="62" cy="110" r="1" fill="#c9a96e"/>
  <circle cx="96" cy="90" r="1" fill="#c9a96e"/>
  <circle cx="68" cy="140" r="1" fill="#c9a96e"/>
  <circle cx="94" cy="130" r="1" fill="#c9a96e"/>
  <circle cx="70" cy="160" r="1" fill="#c9a96e"/>
  <circle cx="92" cy="155" r="1" fill="#c9a96e"/>
</svg>
